# xmcd
#
# Track frame offsets:
#	150
#	21893
#	38787
#	57826
#	74507
#	91961
#	110644
#	127048
#	147705
#	165842
#	186910
#	201232
#
# Disc length: 2918 seconds
# Revision: 0
# Processed by: cddbd v1.5.2PL0 Copyright (c) Steve Scherf et al.
# Submitted via: dBpowerAMP V12.0
#
DISCID=b10b640c
DTITLE=Niksta - Smoke And Mirrors
DYEAR=2018
DGENRE=Aussie Country
TTITLE0=Don't Want To Leave
TTITLE1=A Kiss
TTITLE2=Rainbow Child
TTITLE3=I'm Scared
TTITLE4=Get Me Out Of Here
TTITLE5=Are You Ready
TTITLE6=Light
TTITLE7=Return To Me
TTITLE8=Who I Am
TTITLE9=Until That Day Comes
TTITLE10=Pole Dancer
TTITLE11=I'm Still Here
EXTD=
EXTT0=
EXTT1=
EXTT2=
EXTT3=
EXTT4=
EXTT5=
EXTT6=
EXTT7=
EXTT8=
EXTT9=
EXTT10=
EXTT11=
PLAYORDER=
